<svg width="68" height="10" viewBox="0 0 68 10" fill="none" xmlns="http://www.w3.org/2000/svg">
<g clip-path="url(#clip0_205_3)">
<path d="M6.97727 0.27273V9H5.95455L1.19886 2.14773H1.11364V9H0.0568161V0.27273H1.07955L5.85227 7.14205H5.9375V0.27273H6.97727ZM9.81197 9V0.27273H15.079V1.21023H10.8688V4.15909H14.8063V5.09659H10.8688V8.0625H15.1472V9H9.81197ZM18.2152 0.27273L20.4652 3.90341H20.5334L22.7834 0.27273H24.0277L21.2834 4.63636L24.0277 9H22.7834L20.5334 5.4375H20.4652L18.2152 9H16.9709L19.7834 4.63636L16.9709 0.27273H18.2152ZM25.6458 1.21023V0.27273H32.1912V1.21023H29.4469V9H28.3901V1.21023H25.6458ZM36.7934 0.27273H37.8502V6.51136C37.8502 7.06818 37.7479 7.54119 37.5434 7.9304C37.3388 8.3196 37.0505 8.61506 36.6783 8.81676C36.3061 9.01847 35.8672 9.11932 35.3615 9.11932C34.8843 9.11932 34.4595 9.03267 34.0874 8.85938C33.7152 8.68324 33.4226 8.43324 33.2095 8.10938C32.9965 7.78551 32.8899 7.40057 32.8899 6.95455H33.9297C33.9297 7.2017 33.9908 7.41761 34.113 7.60227C34.238 7.78409 34.4084 7.92614 34.6243 8.02841C34.8402 8.13068 35.086 8.18182 35.3615 8.18182C35.6655 8.18182 35.924 8.1179 36.1371 7.99006C36.3502 7.86222 36.5121 7.67472 36.6229 7.42756C36.7365 7.17756 36.7934 6.87216 36.7934 6.51136V0.27273ZM45.4608 2.45455C45.4097 2.02273 45.2023 1.6875 44.8386 1.44886C44.475 1.21023 44.029 1.09091 43.5006 1.09091C43.1142 1.09091 42.7761 1.15341 42.4864 1.27841C42.1994 1.40341 41.975 1.57528 41.8131 1.79403C41.654 2.01278 41.5744 2.26136 41.5744 2.53977C41.5744 2.77273 41.6298 2.97301 41.7406 3.14062C41.8543 3.3054 41.9991 3.44318 42.1753 3.55398C42.3514 3.66193 42.5361 3.75142 42.7293 3.82244C42.9224 3.89062 43.1 3.94602 43.2619 3.98864L44.1483 4.22727C44.3756 4.28693 44.6284 4.36932 44.9068 4.47443C45.1881 4.57955 45.4565 4.72301 45.7122 4.90483C45.9707 5.08381 46.1838 5.31392 46.3514 5.59517C46.519 5.87642 46.6028 6.22159 46.6028 6.63068C46.6028 7.10227 46.4793 7.52841 46.2321 7.90909C45.9878 8.28977 45.6298 8.59233 45.1582 8.81676C44.6895 9.04119 44.1199 9.15341 43.4494 9.15341C42.8244 9.15341 42.2832 9.05256 41.8259 8.85085C41.3713 8.64915 41.0134 8.3679 40.752 8.0071C40.4935 7.64631 40.3472 7.22727 40.3131 6.75H41.404C41.4324 7.07955 41.5432 7.35227 41.7364 7.56818C41.9324 7.78125 42.1795 7.94034 42.4778 8.04545C42.779 8.14773 43.1028 8.19886 43.4494 8.19886C43.8528 8.19886 44.2151 8.13352 44.5361 8.00284C44.8571 7.86932 45.1114 7.68466 45.2989 7.44886C45.4864 7.21023 45.5801 6.93182 45.5801 6.61364C45.5801 6.32386 45.4991 6.08807 45.3372 5.90625C45.1753 5.72443 44.9622 5.5767 44.698 5.46307C44.4338 5.34943 44.1483 5.25 43.8415 5.16477L42.7676 4.85795C42.0858 4.66193 41.546 4.3821 41.1483 4.01847C40.7506 3.65483 40.5517 3.17898 40.5517 2.59091C40.5517 2.10227 40.6838 1.67614 40.948 1.3125C41.2151 0.946026 41.573 0.661935 42.0219 0.46023C42.4736 0.255685 42.9778 0.153412 43.5347 0.153412C44.0972 0.153412 44.5972 0.254264 45.0347 0.455969C45.4722 0.654832 45.8187 0.927559 46.0744 1.27415C46.333 1.62074 46.4693 2.0142 46.4835 2.45455H45.4608ZM52.674 4.16761V5.10511H48.8559V4.16761H52.674ZM58.2147 0.27273V9H57.1579V1.38068H57.1068L54.9761 2.79545V1.72159L57.1579 0.27273H58.2147ZM61.2401 7.21023V6.34091L65.0753 0.27273H65.706V1.61932H65.2799L62.3822 6.20455V6.27273H67.5469V7.21023H61.2401ZM65.3481 9V6.94602V6.54119V0.27273H66.3538V9H65.3481Z" fill="#0D0A99"/>
<path d="M6.97727 0.27273H7.47727V-0.22727H6.97727V0.27273ZM6.97727 9V9.5H7.47727V9H6.97727ZM5.95455 9L5.54378 9.28508L5.69294 9.5H5.95455V9ZM1.19886 2.14773L1.60963 1.86264L1.46047 1.64773H1.19886V2.14773ZM1.11364 2.14773V1.64773H0.613634V2.14773H1.11364ZM1.11364 9V9.5H1.61364V9H1.11364ZM0.0568163 9H-0.443184V9.5H0.0568163V9ZM0.0568163 0.27273V-0.22727H-0.443184V0.27273H0.0568163ZM1.07955 0.27273L1.49016 -0.0125635L1.34099 -0.22727H1.07955V0.27273ZM5.85227 7.14205L5.44165 7.42734L5.59083 7.64205H5.85227V7.14205ZM5.9375 7.14205V7.64205H6.4375V7.14205H5.9375ZM5.9375 0.27273V-0.22727H5.4375V0.27273H5.9375ZM6.47727 0.27273V9H7.47727V0.27273H6.47727ZM6.97727 8.5H5.95455V9.5H6.97727V8.5ZM6.36531 8.71492L1.60963 1.86264L0.788097 2.43281L5.54378 9.28508L6.36531 8.71492ZM1.19886 1.64773H1.11364V2.64773H1.19886V1.64773ZM0.613634 2.14773V9H1.61364V2.14773H0.613634ZM1.11364 8.5H0.0568163V9.5H1.11364V8.5ZM0.556816 9V0.27273H-0.443184V9H0.556816ZM0.0568163 0.77273H1.07955V-0.22727H0.0568163V0.77273ZM0.668925 0.558023L5.44165 7.42734L6.26289 6.85675L1.49016 -0.0125635L0.668925 0.558023ZM5.85227 7.64205H5.9375V6.64205H5.85227V7.64205ZM6.4375 7.14205V0.27273H5.4375V7.14205H6.4375ZM5.9375 0.77273H6.97727V-0.22727H5.9375V0.77273ZM9.81197 9H9.31197V9.5H9.81197V9ZM9.81197 0.27273V-0.22727H9.31197V0.27273H9.81197ZM15.079 0.27273H15.579V-0.22727H15.079V0.27273ZM15.079 1.21023V1.71023H15.579V1.21023H15.079ZM10.8688 1.21023V0.71023H10.3688V1.21023H10.8688ZM10.8688 4.15909H10.3688V4.65909H10.8688V4.15909ZM14.8063 4.15909H15.3063V3.65909H14.8063V4.15909ZM14.8063 5.09659V5.59659H15.3063V5.09659H14.8063ZM10.8688 5.09659V4.59659H10.3688V5.09659H10.8688ZM10.8688 8.0625H10.3688V8.5625H10.8688V8.0625ZM15.1472 8.0625H15.6472V7.5625H15.1472V8.0625ZM15.1472 9V9.5H15.6472V9H15.1472ZM10.312 9V0.27273H9.31197V9H10.312ZM9.81197 0.77273H15.079V-0.22727H9.81197V0.77273ZM14.579 0.27273V1.21023H15.579V0.27273H14.579ZM15.079 0.71023H10.8688V1.71023H15.079V0.71023ZM10.3688 1.21023V4.15909H11.3688V1.21023H10.3688ZM10.8688 4.65909H14.8063V3.65909H10.8688V4.65909ZM14.3063 4.15909V5.09659H15.3063V4.15909H14.3063ZM14.8063 4.59659H10.8688V5.59659H14.8063V4.59659ZM10.3688 5.09659V8.0625H11.3688V5.09659H10.3688ZM10.8688 8.5625H15.1472V7.5625H10.8688V8.5625ZM14.6472 8.0625V9H15.6472V8.0625H14.6472ZM15.1472 8.5H9.81197V9.5H15.1472V8.5ZM18.2152 0.27273L18.6402 0.00934654L18.4936 -0.22727H18.2152V0.27273ZM20.4652 3.90341L20.0402 4.16679L20.1868 4.40341H20.4652V3.90341ZM20.5334 3.90341V4.40341H20.8118L20.9584 4.16679L20.5334 3.90341ZM22.7834 0.27273V-0.22727H22.505L22.3584 0.00934654L22.7834 0.27273ZM24.0277 0.27273L24.451 0.538917L24.9328 -0.22727H24.0277V0.27273ZM21.2834 4.63636L20.8601 4.37018L20.6927 4.63636L20.8601 4.90255L21.2834 4.63636ZM24.0277 9V9.5H24.9328L24.451 8.73381L24.0277 9ZM22.7834 9L22.3607 9.267L22.5078 9.5H22.7834V9ZM20.5334 5.4375L20.9561 5.1705L20.809 4.9375H20.5334V5.4375ZM20.4652 5.4375V4.9375H20.1896L20.0425 5.1705L20.4652 5.4375ZM18.2152 9V9.5H18.4908L18.638 9.267L18.2152 9ZM16.9709 9L16.5506 8.72912L16.0538 9.5H16.9709V9ZM19.7834 4.63636L20.2037 4.90724L20.3783 4.63636L20.2037 4.36549L19.7834 4.63636ZM16.9709 0.27273V-0.22727H16.0538L16.5506 0.543606L16.9709 0.27273ZM17.7902 0.536113L20.0402 4.16679L20.8902 3.64003L18.6402 0.00934654L17.7902 0.536113ZM20.4652 4.40341H20.5334V3.40341H20.4652V4.40341ZM20.9584 4.16679L23.2084 0.536113L22.3584 0.00934654L20.1084 3.64003L20.9584 4.16679ZM22.7834 0.77273H24.0277V-0.22727H22.7834V0.77273ZM23.6045 0.00654256L20.8601 4.37018L21.7067 4.90255L24.451 0.538917L23.6045 0.00654256ZM20.8601 4.90255L23.6045 9.26619L24.451 8.73381L21.7067 4.37018L20.8601 4.90255ZM24.0277 8.5H22.7834V9.5H24.0277V8.5ZM23.2061 8.733L20.9561 5.1705L20.1107 5.7045L22.3607 9.267L23.2061 8.733ZM20.5334 4.9375H20.4652V5.9375H20.5334V4.9375ZM20.0425 5.1705L17.7925 8.733L18.638 9.267L20.888 5.7045L20.0425 5.1705ZM18.2152 8.5H16.9709V9.5H18.2152V8.5ZM17.3912 9.27088L20.2037 4.90724L19.3631 4.36549L16.5506 8.72912L17.3912 9.27088ZM20.2037 4.36549L17.3912 0.00185341L16.5506 0.543606L19.3631 4.90724L20.2037 4.36549ZM16.9709 0.77273H18.2152V-0.22727H16.9709V0.77273ZM25.6458 1.21023H25.1458V1.71023H25.6458V1.21023ZM25.6458 0.27273V-0.22727H25.1458V0.27273H25.6458ZM32.1912 0.27273H32.6912V-0.22727H32.1912V0.27273ZM32.1912 1.21023V1.71023H32.6912V1.21023H32.1912ZM29.4469 1.21023V0.71023H28.9469V1.21023H29.4469ZM29.4469 9V9.5H29.9469V9H29.4469ZM28.3901 9H27.8901V9.5H28.3901V9ZM28.3901 1.21023H28.8901V0.71023H28.3901V1.21023ZM26.1458 1.21023V0.27273H25.1458V1.21023H26.1458ZM25.6458 0.77273H32.1912V-0.22727H25.6458V0.77273ZM31.6912 0.27273V1.21023H32.6912V0.27273H31.6912ZM32.1912 0.71023H29.4469V1.71023H32.1912V0.71023ZM28.9469 1.21023V9H29.9469V1.21023H28.9469ZM29.4469 8.5H28.3901V9.5H29.4469V8.5ZM28.8901 9V1.21023H27.8901V9H28.8901ZM28.3901 0.71023H25.6458V1.71023H28.3901V0.71023ZM36.7934 0.27273V-0.22727H36.2934V0.27273H36.7934ZM37.8502 0.27273H38.3502V-0.22727H37.8502V0.27273ZM34.0874 8.85938L33.8735 9.31132L33.8763 9.31264L34.0874 8.85938ZM32.8899 6.95455V6.45455H32.3899V6.95455H32.8899ZM33.9297 6.95455H34.4297V6.45455H33.9297V6.95455ZM34.113 7.60227L33.6959 7.87818L33.7009 7.88554L34.113 7.60227ZM36.6229 7.42756L36.1677 7.22065L36.1666 7.22303L36.6229 7.42756ZM36.7934 0.77273H37.8502V-0.22727H36.7934V0.77273ZM37.3502 0.27273V6.51136H38.3502V0.27273H37.3502ZM37.3502 6.51136C37.3502 7.00822 37.2589 7.39691 37.1008 7.69779L37.986 8.163C38.2369 7.68547 38.3502 7.12814 38.3502 6.51136H37.3502ZM37.1008 7.69779C36.9404 8.00287 36.7216 8.22459 36.44 8.37717L36.9165 9.25635C37.3793 9.00553 37.7372 8.63634 37.986 8.163L37.1008 7.69779ZM36.44 8.37717C36.154 8.53219 35.8002 8.61932 35.3615 8.61932V9.61932C35.9343 9.61932 36.4582 9.50474 36.9165 9.25635L36.44 8.37717ZM35.3615 8.61932C34.9454 8.61932 34.5946 8.544 34.2985 8.40611L33.8763 9.31264C34.3245 9.52134 34.8231 9.61932 35.3615 9.61932V8.61932ZM34.3013 8.40744C34.0067 8.26799 33.7868 8.077 33.6273 7.83457L32.7918 8.38418C33.0585 8.78948 33.4238 9.09849 33.8735 9.31132L34.3013 8.40744ZM33.6273 7.83457C33.4756 7.60406 33.3899 7.31799 33.3899 6.95455H32.3899C32.3899 7.48315 32.5174 7.96696 32.7918 8.38418L33.6273 7.83457ZM32.8899 7.45455H33.9297V6.45455H32.8899V7.45455ZM33.4297 6.95455C33.4297 7.28799 33.5135 7.60236 33.6959 7.87818L34.53 7.3264C34.4681 7.2329 34.4297 7.11542 34.4297 6.95455H33.4297ZM33.7009 7.88554C33.88 8.146 34.1215 8.34348 34.4103 8.48028L34.8384 7.57654C34.6954 7.5088 34.5959 7.42218 34.525 7.31901L33.7009 7.88554ZM34.4103 8.48028C34.7026 8.61876 35.0233 8.68182 35.3615 8.68182V7.68182C35.1487 7.68182 34.9778 7.6426 34.8384 7.57654L34.4103 8.48028ZM35.3615 8.68182C35.7359 8.68182 36.0879 8.60267 36.3944 8.4188L35.8799 7.56131C35.7602 7.63312 35.5951 7.68182 35.3615 7.68182V8.68182ZM36.3944 8.4188C36.7031 8.23357 36.9305 7.96376 37.0792 7.63208L36.1666 7.22303C36.0937 7.38567 35.9973 7.49086 35.8799 7.56131L36.3944 8.4188ZM37.0781 7.63446C37.229 7.30248 37.2934 6.92214 37.2934 6.51136H36.2934C36.2934 6.82217 36.2441 7.05262 36.1677 7.22065L37.0781 7.63446ZM37.2934 6.51136V0.27273H36.2934V6.51136H37.2934ZM45.4608 2.45455L44.9643 2.51334L45.0165 2.95455H45.4608V2.45455ZM42.4864 1.27841L42.2883 0.819303L42.2867 0.820021L42.4864 1.27841ZM41.8131 1.79403L41.4112 1.49653L41.4087 1.49995L41.8131 1.79403ZM41.7406 3.14062L41.3234 3.41639L41.329 3.42449L41.7406 3.14062ZM42.1753 3.55398L41.909 3.97724L41.914 3.98028L42.1753 3.55398ZM42.7293 3.82244L42.5567 4.29177L42.5628 4.29394L42.7293 3.82244ZM43.2619 3.98864L43.3919 3.50582L43.3892 3.5051L43.2619 3.98864ZM44.1483 4.22727L44.0183 4.71009L44.0213 4.71089L44.1483 4.22727ZM44.9068 4.47443L44.7302 4.94221L44.7318 4.94279L44.9068 4.47443ZM45.7122 4.90483L45.4224 5.31234L45.4276 5.31593L45.7122 4.90483ZM46.2321 7.90909L45.8127 7.63681L45.8113 7.63903L46.2321 7.90909ZM45.1582 8.81676L44.9434 8.36528L44.9423 8.36579L45.1582 8.81676ZM41.8259 8.85085L41.623 9.30788L41.6241 9.30834L41.8259 8.85085ZM40.752 8.0071L40.3455 8.29833L40.3471 8.30043L40.752 8.0071ZM40.3131 6.75V6.25H39.7761L39.8143 6.78562L40.3131 6.75ZM41.404 6.75L41.9021 6.70706L41.8627 6.25H41.404V6.75ZM41.7364 7.56818L41.3637 7.90161L41.3684 7.90671L41.7364 7.56818ZM42.4778 8.04545L42.3117 8.51706L42.317 8.5189L42.4778 8.04545ZM44.5361 8.00284L44.7246 8.46595L44.7281 8.4645L44.5361 8.00284ZM45.2989 7.44886L45.6902 7.76006L45.692 7.75777L45.2989 7.44886ZM43.8415 5.16477L43.7041 5.64555L43.7077 5.64653L43.8415 5.16477ZM42.0219 0.46023L42.2268 0.916301L42.2281 0.915707L42.0219 0.46023ZM45.0347 0.455969L44.8253 0.910041L44.8278 0.911152L45.0347 0.455969ZM46.0744 1.27415L45.6721 1.57098L45.6736 1.5731L46.0744 1.27415ZM46.4835 2.45455V2.95455H46.9999L46.9833 2.43842L46.4835 2.45455ZM45.9573 2.39575C45.8888 1.8172 45.6001 1.35049 45.113 1.03084L44.5643 1.86689C44.8045 2.02451 44.9305 2.22826 44.9643 2.51334L45.9573 2.39575ZM45.113 1.03084C44.6518 0.728197 44.1053 0.590912 43.5006 0.590912V1.59091C43.9526 1.59091 44.2982 1.69226 44.5643 1.86689L45.113 1.03084ZM43.5006 0.590912C43.061 0.590912 42.653 0.661995 42.2883 0.819303L42.6844 1.73751C42.8993 1.64482 43.1674 1.59091 43.5006 1.59091V0.590912ZM42.2867 0.820021C41.9316 0.974694 41.6326 1.19738 41.4112 1.49653L42.2149 2.09152C42.3173 1.95318 42.4672 1.83213 42.6861 1.7368L42.2867 0.820021ZM41.4087 1.49995C41.1855 1.8068 41.0744 2.15901 41.0744 2.53977H42.0744C42.0744 2.36372 42.1224 2.21877 42.2174 2.08812L41.4087 1.49995ZM41.0744 2.53977C41.0744 2.85475 41.1503 3.15458 41.3234 3.41639L42.1577 2.86491C42.1092 2.7915 42.0744 2.6907 42.0744 2.53977H41.0744ZM41.329 3.42449C41.4827 3.64731 41.6777 3.83179 41.909 3.97724L42.4415 3.13075C42.3205 3.0546 42.2258 2.96348 42.1522 2.85676L41.329 3.42449ZM41.914 3.98028C42.1181 4.10539 42.3325 4.20934 42.5567 4.29177L42.9018 3.35315C42.7397 3.29354 42.5847 3.21848 42.4366 3.12768L41.914 3.98028ZM42.5628 4.29394C42.7662 4.36571 42.957 4.42542 43.1347 4.47217L43.3892 3.5051C43.243 3.46663 43.0787 3.41554 42.8957 3.35095L42.5628 4.29394ZM43.1319 4.47144L44.0183 4.71009L44.2783 3.74446L43.3919 3.50582L43.1319 4.47144ZM44.0213 4.71089C44.2281 4.76515 44.464 4.84171 44.7302 4.94221L45.0834 4.00666C44.7928 3.89694 44.5231 3.80871 44.2752 3.74366L44.0213 4.71089ZM44.7318 4.94279C44.9705 5.03201 45.2005 5.15458 45.4224 5.31234L46.002 4.49735C45.7125 4.29147 45.4056 4.12708 45.0819 4.00607L44.7318 4.94279ZM45.4276 5.31593C45.6248 5.45247 45.7894 5.62878 45.9219 5.85114L46.7809 5.3392C46.5782 4.99907 46.3166 4.71514 45.9968 4.49373L45.4276 5.31593ZM45.9219 5.85114C46.0332 6.03785 46.1028 6.28943 46.1028 6.63068H47.1028C47.1028 6.15375 47.0049 5.71499 46.7809 5.3392L45.9219 5.85114ZM46.1028 6.63068C46.1028 7.00961 46.0051 7.34046 45.8127 7.63681L46.6515 8.18136C46.9534 7.71635 47.1028 7.19494 47.1028 6.63068H46.1028ZM45.8113 7.63903C45.6248 7.9297 45.344 8.17461 44.9434 8.36528L45.3731 9.26824C45.9156 9.01005 46.3508 8.64985 46.6529 8.17915L45.8113 7.63903ZM44.9423 8.36579C44.5576 8.55 44.066 8.65341 43.4494 8.65341V9.65341C44.1737 9.65341 44.8214 9.53239 45.3742 9.26774L44.9423 8.36579ZM43.4494 8.65341C42.8771 8.65341 42.4076 8.56095 42.0276 8.39336L41.6241 9.30834C42.1588 9.54416 42.7718 9.65341 43.4494 9.65341V8.65341ZM42.0287 8.39383C41.6452 8.22365 41.3607 7.99509 41.1569 7.71378L40.3471 8.30043C40.666 8.74071 41.0975 9.07465 41.623 9.30788L42.0287 8.39383ZM41.1584 7.71588C40.9579 7.43599 40.8398 7.10703 40.8118 6.71438L39.8143 6.78562C39.8545 7.34752 40.029 7.85663 40.3455 8.29833L41.1584 7.71588ZM40.3131 7.25H41.404V6.25H40.3131V7.25ZM40.9058 6.79294C40.9422 7.21439 41.0884 7.59385 41.3637 7.90161L42.109 7.23478C41.998 7.11072 41.9226 6.94471 41.9021 6.70706L40.9058 6.79294ZM41.3684 7.90671C41.6248 8.1854 41.9435 8.38734 42.3117 8.51706L42.644 7.57388C42.4156 7.49338 42.24 7.3771 42.1043 7.22965L41.3684 7.90671ZM42.317 8.5189C42.6744 8.64026 43.053 8.69886 43.4494 8.69886V7.69886C43.1526 7.69886 42.8835 7.65519 42.6386 7.57201L42.317 8.5189ZM43.4494 8.69886C43.907 8.69886 44.3347 8.62465 44.7246 8.46595L44.3476 7.53974C44.0954 7.6424 43.7987 7.69886 43.4494 7.69886V8.69886ZM44.7281 8.4645C45.1151 8.30354 45.4424 8.07165 45.6902 7.76006L44.9075 7.13767C44.7803 7.29767 44.5991 7.43509 44.3441 7.54118L44.7281 8.4645ZM45.692 7.75777C45.9523 7.42656 46.0801 7.03801 46.0801 6.61364H45.0801C45.0801 6.82562 45.0205 6.99389 44.9057 7.13995L45.692 7.75777ZM46.0801 6.61364C46.0801 6.22583 45.9691 5.86393 45.7106 5.57371L44.9638 6.23879C45.0292 6.3122 45.0801 6.4219 45.0801 6.61364H46.0801ZM45.7106 5.57371C45.492 5.32826 45.2149 5.1411 44.8956 5.00375L44.5005 5.92238C44.7095 6.01231 44.8586 6.1206 44.9638 6.23879L45.7106 5.57371ZM44.8956 5.00375C44.6086 4.88032 44.3016 4.77364 43.9753 4.68301L43.7077 5.64653C43.995 5.72636 44.259 5.81854 44.5005 5.92238L44.8956 5.00375ZM43.9788 4.68401L42.905 4.37719L42.6295 5.33849L43.7041 5.64555L43.9788 4.68401ZM42.905 4.37719C42.2748 4.19601 41.8114 3.94726 41.4857 3.64945L40.8109 4.38748C41.2806 4.81694 41.896 5.12763 42.6295 5.33849L42.905 4.37719ZM41.4857 3.64945C41.2017 3.38978 41.0517 3.05291 41.0517 2.59091H40.0517C40.0517 3.30505 40.2995 3.91988 40.8109 4.38748L41.4857 3.64945ZM41.0517 2.59091C41.0517 2.19816 41.1558 1.87708 41.3525 1.6064L40.5439 1.01804C40.2122 1.47463 40.0517 2.00638 40.0517 2.59091H41.0517ZM41.3525 1.6064C41.564 1.31611 41.8503 1.08549 42.2268 0.916301L41.8169 0.00416115C41.2957 0.238375 40.8665 0.575376 40.5439 1.01804L41.3525 1.6064ZM42.2281 0.915707C42.6075 0.74392 43.0402 0.653412 43.5347 0.653412V-0.346588C42.9155 -0.346588 42.3397 -0.232551 41.8156 0.00475281L42.2281 0.915707ZM43.5347 0.653412C44.0369 0.653412 44.4636 0.74326 44.8253 0.910041L45.244 0.0019024C44.7308 -0.234725 44.1574 -0.346588 43.5347 -0.346588V0.653412ZM44.8278 0.911152C45.1968 1.07891 45.4726 1.30064 45.6721 1.57098L46.4768 0.977326C46.1649 0.554484 45.7475 0.230749 45.2416 0.000785053L44.8278 0.911152ZM45.6736 1.5731C45.8698 1.8361 45.9728 2.13043 45.9838 2.47067L46.9833 2.43842C46.9658 1.89797 46.7961 1.40537 46.4752 0.975202L45.6736 1.5731ZM46.4835 1.95455H45.4608V2.95455H46.4835V1.95455ZM52.674 4.16761H53.174V3.66761H52.674V4.16761ZM52.674 5.10511V5.60511H53.174V5.10511H52.674ZM48.8559 5.10511H48.3559V5.60511H48.8559V5.10511ZM48.8559 4.16761V3.66761H48.3559V4.16761H48.8559ZM52.174 4.16761V5.10511H53.174V4.16761H52.174ZM52.674 4.60511H48.8559V5.60511H52.674V4.60511ZM49.3559 5.10511V4.16761H48.3559V5.10511H49.3559ZM48.8559 4.66761H52.674V3.66761H48.8559V4.66761ZM58.2147 0.27273H58.7147V-0.22727H58.2147V0.27273ZM58.2147 9V9.5H58.7147V9H58.2147ZM57.1579 9H56.6579V9.5H57.1579V9ZM57.1579 1.38068H57.6579V0.880685H57.1579V1.38068ZM57.1068 1.38068V0.880685H56.9559L56.8302 0.964148L57.1068 1.38068ZM54.9761 2.79545H54.4761V3.72764L55.2527 3.21199L54.9761 2.79545ZM54.9761 1.72159L54.6995 1.30507L54.4761 1.45342V1.72159H54.9761ZM57.1579 0.27273V-0.22727H57.007L56.8813 -0.143795L57.1579 0.27273ZM57.7147 0.27273V9H58.7147V0.27273H57.7147ZM58.2147 8.5H57.1579V9.5H58.2147V8.5ZM57.6579 9V1.38068H56.6579V9H57.6579ZM57.1579 0.880685H57.1068V1.88068H57.1579V0.880685ZM56.8302 0.964148L54.6995 2.37892L55.2527 3.21199L57.3833 1.79722L56.8302 0.964148ZM55.4761 2.79545V1.72159H54.4761V2.79545H55.4761ZM55.2527 2.13812L57.4345 0.689255L56.8813 -0.143795L54.6995 1.30507L55.2527 2.13812ZM57.1579 0.77273H58.2147V-0.22727H57.1579V0.77273ZM61.2401 7.21023H60.7401V7.71023H61.2401V7.21023ZM61.2401 6.34091L60.8175 6.07378L60.7401 6.19615V6.34091H61.2401ZM65.0753 0.27273V-0.22727H64.7999L64.6527 0.00559938L65.0753 0.27273ZM65.706 0.27273H66.206V-0.22727H65.706V0.27273ZM65.706 1.61932V2.11932H66.206V1.61932H65.706ZM65.2799 1.61932V1.11932H65.0044L64.8572 1.3522L65.2799 1.61932ZM62.3822 6.20455L61.9595 5.93743L61.8822 6.05979V6.20455H62.3822ZM62.3822 6.27273H61.8822V6.77273H62.3822V6.27273ZM67.5469 6.27273H68.0469V5.77273H67.5469V6.27273ZM67.5469 7.21023V7.71023H68.0469V7.21023H67.5469ZM65.3481 9H64.8481V9.5H65.3481V9ZM65.3481 0.27273V-0.22727H64.8481V0.27273H65.3481ZM66.3538 0.27273H66.8538V-0.22727H66.3538V0.27273ZM66.3538 9V9.5H66.8538V9H66.3538ZM61.7401 7.21023V6.34091H60.7401V7.21023H61.7401ZM61.6628 6.60804L65.498 0.53986L64.6527 0.00559938L60.8175 6.07378L61.6628 6.60804ZM65.0753 0.77273H65.706V-0.22727H65.0753V0.77273ZM65.206 0.27273V1.61932H66.206V0.27273H65.206ZM65.706 1.11932H65.2799V2.11932H65.706V1.11932ZM64.8572 1.3522L61.9595 5.93743L62.8048 6.47166L65.7026 1.88643L64.8572 1.3522ZM61.8822 6.20455V6.27273H62.8822V6.20455H61.8822ZM62.3822 6.77273H67.5469V5.77273H62.3822V6.77273ZM67.0469 6.27273V7.21023H68.0469V6.27273H67.0469ZM67.5469 6.71023H61.2401V7.71023H67.5469V6.71023ZM65.8481 9V6.94602H64.8481V9H65.8481ZM65.8481 6.94602V6.54119H64.8481V6.94602H65.8481ZM65.8481 6.54119V0.27273H64.8481V6.54119H65.8481ZM65.3481 0.77273H66.3538V-0.22727H65.3481V0.77273ZM65.8538 0.27273V9H66.8538V0.27273H65.8538ZM66.3538 8.5H65.3481V9.5H66.3538V8.5Z" fill="#03e80b"/>
</g>
<defs>
<clipPath id="clip0_205_3">
<rect width="68" height="10" fill="white"/>
</clipPath>
</defs>
</svg>
